<svg xmlns="http://www.w3.org/2000/svg" viewBox="0 0 105.78 54.08"><defs><style>.cls-1{isolation:isolate;}.cls-2{mix-blend-mode:overlay;}.cls-3{mix-blend-mode:color-burn;}.cls-4{fill:#f54a47;}</style></defs><g class="cls-1"><g id="Layer_1" data-name="Layer 1"><g class="cls-2"><g class="cls-3"><path class="cls-4" d="M19.19,2.33c-.53,16.2-5.39,32.06-3.55,48.42.32,2.81,4.45,3,4.5,0,.14-8.6-.56-17.15-.13-25.77.38-7.63,1.89-15.23.66-22.84-.14-.87-1.45-.62-1.48.19Z"/></g><g class="cls-3"><path class="cls-4" d="M48.74,12.08A204.49,204.49,0,0,1,2.46,31.46c-2.3.64-1.9,4.31.58,4.23,7.88-.23,13.84,5,20.54,8.3s13.62,4.19,20.93,4.37c3,.07,2.79-4.15,0-4.5-8.79-1.09-16.07-2.57-23.85-6.9C15.1,33.86,9.6,30.9,3,31.38l.57,4.24A208,208,0,0,0,49.78,13.86a1,1,0,0,0-1-1.78Z"/></g><g class="cls-3"><path class="cls-4" d="M41.3,40.53c4.77,2.36,8.75-1.15,10.68-5.4l-2.73-.74c-.8,6.61,6.55,11,11.64,6.43,1.25-1.12-.34-2.89-1.7-2.21-3.46,1.72-7.28,0-7-4.22.11-1.76-2.32-1.82-2.88-.39-1,2.71-3.36,6.08-6.86,4.59C41.14,38,40,39.87,41.3,40.53Z"/></g><g class="cls-3"><path class="cls-4" d="M65.36,36.6a24.31,24.31,0,0,1,.7,4.15c.16,2,3.38,2.82,3.82.52,1-5.53,7.22-2.58,10.62-4.11a1.4,1.4,0,0,0,.29-2.2c-2.34-1.88-6.55-1.58-9.27-.62a8,8,0,0,0-5.39,5.9l3.82.51a31.56,31.56,0,0,0-.79-5.2c-.6-2.46-4.43-1.42-3.8,1.05Z"/></g><g class="cls-3"><path class="cls-4" d="M91.52,34.18c-5.45-.94-10.37,5.72-4.11,8.64,4.69,2.2,13.46.51,14.77-5.21a2.15,2.15,0,0,0-1-2.39,10.23,10.23,0,0,0-5.88-1.28c-2.75.24-2.75,4.6,0,4.32a6.11,6.11,0,0,1,3.75.61l-1-2.39c-.46,2.18-3,2.73-5,3a8.61,8.61,0,0,1-3.43,0c-3-.79-.22-3.21,1.54-3.41,1-.11,1.39-1.65.25-1.84Z"/></g><g class="cls-3"><path class="cls-4" d="M51.47,27.73a1.59,1.59,0,0,0,0-3.18,1.59,1.59,0,0,0,0,3.18Z"/></g></g></g></g></svg>